<?xml version="1.0" encoding="utf-8"?>
<!-- Generator: Adobe Illustrator 19.2.1, SVG Export Plug-In . SVG Version: 6.00 Build 0)  -->
<svg version="1.1" id="Isolation_Mode" xmlns="http://www.w3.org/2000/svg" xmlns:xlink="http://www.w3.org/1999/xlink" x="0px"
	 y="0px" viewBox="0 0 103.7 168.9" style="enable-background:new 0 0 103.7 168.9;" xml:space="preserve">
<style type="text/css">
	.st0{fill:#FFFFFF;}
</style>
<g>
	<g>
		<g>
			<path class="st0" d="M53.6,16.1c-4.3,21.5-4.8,43.4-5.7,65.2c-0.9,21-0.9,42.3,1.3,63.3c0.4,3.5,6.8,2.7,6.4-1
				c-2.2-21-2-42.4-1.1-63.5c0.9-21.2,1.4-42.6,5.6-63.5C60.8,13,54.3,12.5,53.6,16.1L53.6,16.1z"/>
		</g>
	</g>
	<g>
		<g>
			<path class="st0" d="M91.6,90.7c-10.6,6.5-18.7,16.5-25,27c-6.4,10.6-11.4,22.5-12.5,34.9c2-0.5,4.1-0.9,6.1-1.4
				c-7.4-9-12.6-19.6-19.9-28.6c-7.6-9.3-17.4-14.7-29.1-17c-3.4-0.7-6.4,4.3-2.2,5.1c11.6,2.3,20.6,7.9,27.7,17.4
				c6.2,8.4,11.1,17.7,17.8,25.8c1.6,1.9,5.9,1.6,6.1-1.4c1.9-22,16.3-46.7,35.3-58.3C99.4,92.1,94.5,88.9,91.6,90.7L91.6,90.7z"/>
		</g>
	</g>
</g>
</svg>
