<?xml version="1.0" encoding="utf-8"?>
<!-- Generator: Adobe Illustrator 19.2.1, SVG Export Plug-In . SVG Version: 6.00 Build 0)  -->
<svg version="1.1" id="Layer_1" xmlns="http://www.w3.org/2000/svg" xmlns:xlink="http://www.w3.org/1999/xlink" x="0px" y="0px"
	 viewBox="0 0 840 210" style="enable-background:new 0 0 840 210;" xml:space="preserve">
<style type="text/css">
	.st0{fill:#65C19E;}
</style>
<g>
	<path d="M269.9,127.9h8V92.6h-8v-8h17.6v6.6c4.7-4.2,10.3-7.9,17.8-7.9c6.1,0,11.2,2.4,13.3,8.5c4.8-4.4,10.6-8.5,18.5-8.5
		c8.2,0,14.4,4.6,14.4,15.8v28.8h8.2v8h-26.4v-8h8.2v-28c0-5.8-2.2-8.6-7.6-8.6c-5.2,0-9.7,2.6-14,6.5v30.1h8.2v8h-26.4v-8h8.2v-28
		c0-5.8-2.2-8.6-7.6-8.6c-5.2,0-9.6,2.6-14.2,6.6v30h8.2v8h-26.3V127.9z"/>
	<path d="M375,120.9V92.7h-8.8v-8.2h19v35.3c0,5.6,2,9.1,8,9.1c6.1,0,11.9-3.5,16.4-7.3V92.7h-9.4v-8.2H420v43.2h8.6v8.2h-18.7v-7.1
		c-5.4,4.8-12.1,8.4-19.8,8.4C380.9,137.2,375,131.7,375,120.9z"/>
	<path d="M442,127.7h8.6v-35H442v-8.2h18.7v7.2c5.4-4.8,12.1-8.5,19.8-8.5c9.2,0,15.1,5.5,15.1,16.3v28.2h8.8v8.2h-27.7v-8.2h8.8
		v-27.1c0-5.6-2-9.1-8-9.1c-6.1,0-12,3.7-16.4,7.4v28.8h8.6v8.2H442V127.7z"/>
	<path d="M515,110.3c0-17.3,10.7-27.1,26.8-27.1c7,0,13.8,1.9,18.1,3.5v16.1h-8.8V92.5c-2.3-0.7-5.4-1.3-8.4-1.3
		c-11.5,0-17.2,7.6-17.2,18.8c0,11.5,6,19.2,17.4,19.2c6.1,0,12-2.3,16.7-4.9v8.3c-4.9,2.9-11.2,4.7-18.1,4.7
		C525.1,137.2,515,127.4,515,110.3z"/>
	<path d="M571.3,127.7h8.8V59.2h-8.8v-8.2h19v40.4c5.4-4.7,12-8.3,19.6-8.3c9.2,0,15.1,5.5,15.1,16.3v28.2h8.8v8.2H606v-8.2h8.8
		v-27.1c0-5.6-2-9.1-8-9.1c-6.1,0-12,3.7-16.4,7.4v28.8h8.8v8.2h-27.7V127.7z"/>
	<path d="M646.8,110.2c0-16.3,10.1-27,26.2-27c16.1,0,26.2,10.7,26.2,27c0,16.4-10.1,27-26.2,27
		C656.9,137.2,646.8,126.7,646.8,110.2z M688.6,110.2c0-11.2-5.4-19.1-15.6-19.1c-10.2,0-15.6,7.9-15.6,19.1
		c0,11.2,5.4,19.1,15.6,19.1C683.2,129.3,688.6,121.4,688.6,110.2z"/>
	<path d="M714.5,110.2c0-16.3,10.1-27,26.2-27c16.1,0,26.2,10.7,26.2,27c0,16.4-10.1,27-26.2,27
		C724.6,137.2,714.5,126.7,714.5,110.2z M756.2,110.2c0-11.2-5.4-19.1-15.6-19.1c-10.2,0-15.6,7.9-15.6,19.1
		c0,11.2,5.4,19.1,15.6,19.1C750.8,129.3,756.2,121.4,756.2,110.2z"/>
	<path d="M782.2,110.2c0-15.8,9-27,23.8-27c6.5,0,11.3,2.3,15.1,5.5V59.2h-10.4v-8.2h20.6v76.7h8.8v8.2h-18.2v-6.5
		c-3.8,4.3-9.2,7.8-17,7.8C790.7,137.2,782.2,125.6,782.2,110.2z M821,123.1V96.3c-3.1-2.6-7.2-5-12.7-5c-10.6,0-15.6,7.8-15.6,18.8
		c0,10.1,4.2,19.1,14.6,19.1C813.4,129.2,817.7,126.2,821,123.1z"/>
</g>
<g>
	<path class="st0" d="M200.2,63.5C195,51.1,187.4,40,177.9,30.4c-9.6-9.6-20.7-17.1-33.1-22.3c-9.3-3.9-19-6.5-29-7.6
		c-2.3-0.2-4.5-0.4-6.8-0.5v6.8v16.3v2.1c0.4,4.4,3.3,8.2,7.3,9.7c0.3,0.1,0.5,0.2,0.8,0.3c9.7,3.6,17.6,11.1,21.6,20.6
		c0.9,2.2,1.6,4.4,2.1,6.8c0.5,2.5,0.8,5.1,0.8,7.7v23.5v58.8v10.5c0,2.6-2.1,4.8-4.8,4.8c-2.6,0-4.8-2.1-4.8-4.8v-10.5v-48.1v-9.4
		V75.6v0v0c0-4.7-2.8-8.7-6.8-10.5c-1.5-0.7-3.1-1-4.8-1c-1.7,0-3.3,0.4-4.8,1c-4,1.8-6.8,5.8-6.8,10.5v31.7v6.8v38.4v10.5
		c0,2.6-2.1,4.8-4.8,4.8c-2.6,0-4.8-2.1-4.8-4.8v-10.5v-38.4v-6.8V75.6c0-4.7-2.8-8.7-6.8-10.5c-1.5-0.7-3.1-1-4.8-1
		c-1.7,0-3.3,0.4-4.8,1c-4,1.8-6.8,5.8-6.8,10.5v0v0v19.5v9.4v48.1v10.5c0,2.6-2.1,4.8-4.8,4.8c-2.6,0-4.8-2.1-4.8-4.8v-10.5V93.8
		V70.3c0-2.7,0.3-5.2,0.8-7.7c0.5-2.4,1.2-4.6,2.1-6.8c4-9.5,11.8-17,21.5-20.5c0.3-0.1,0.6-0.2,0.9-0.3c3.9-1.6,6.7-5.2,7.2-9.5
		v-2.4V6.8V0c-2.3,0.1-4.5,0.3-6.8,0.5c-10,1.1-19.7,3.6-29,7.6c-12.4,5.2-23.6,12.8-33.1,22.3C21,40,13.4,51.1,8.2,63.5
		C2.8,76.4,0,90,0,104.1c0,14.1,2.8,27.7,8.2,40.6c5.2,12.4,12.8,23.6,22.3,33.1c9.6,9.6,20.7,17.1,33.1,22.3
		c12.8,5.4,26.5,8.2,40.6,8.2s27.7-2.8,40.6-8.2c12.4-5.2,23.6-12.8,33.1-22.3c9.6-9.6,17.1-20.7,22.3-33.1
		c5.4-12.8,8.2-26.5,8.2-40.6C208.4,90,205.6,76.4,200.2,63.5z M193.9,142c-4.9,11.6-11.9,22-20.9,31c-8.9,8.9-19.4,16-31,20.9
		c-12,5.1-24.8,7.7-37.9,7.7s-25.9-2.6-37.9-7.7c-11.6-4.9-22-11.9-31-20.9c-8.9-8.9-16-19.4-20.9-31c-5.1-12-7.7-24.8-7.7-37.9
		s2.6-25.9,7.7-37.9c4.9-11.6,11.9-22,20.9-31c8.9-8.9,19.4-16,31-20.9c8.5-3.6,17.3-5.9,26.4-7v4v12.1v1.5c-0.3,1.6-1.3,3-2.8,3.6
		c-0.2,0.1-0.4,0.1-0.6,0.2c-3.1,1.1-6,2.5-8.7,4.3c-8.3,5.3-14.7,13.3-18.1,22.7c-1.6,4.6-2.5,9.4-2.5,14.5v92.8
		c0,6.4,5.2,11.6,11.6,11.6c6.4,0,11.6-5.2,11.6-11.6v-54v-8v-15V75.6v0v0c0-2.6,2.1-4.8,4.8-4.8c2.6,0,4.8,2.1,4.8,4.8v10.5v19.7
		v7.1v50.2c0,6.4,5.2,11.6,11.6,11.6c6.4,0,11.6-5.2,11.6-11.6v-50.2v-7.1V86.1V75.6c0-2.6,2.1-4.8,4.8-4.8c2.6,0,4.8,2.1,4.8,4.8v0
		v0v10.5v15v8v54c0,6.4,5.2,11.6,11.6,11.6c6.4,0,11.6-5.2,11.6-11.6V70.3c0-5.1-0.9-10-2.5-14.5c-3.3-9.4-9.7-17.4-18-22.7
		c-2.7-1.7-5.7-3.2-8.8-4.3c-0.2-0.1-0.3-0.1-0.5-0.2c-1.5-0.6-2.6-2.1-2.9-3.7v-1.3V11.3v-4c9.1,1.1,17.9,3.4,26.4,7
		c11.6,4.9,22,11.9,31,20.9c8.9,8.9,16,19.4,20.9,31c5.1,12,7.7,24.8,7.7,37.9S199,130,193.9,142z"/>
</g>
</svg>
