<?xml version="1.0" encoding="utf-8"?>
<!-- Generator: Adobe Illustrator 19.2.1, SVG Export Plug-In . SVG Version: 6.00 Build 0)  -->
<svg version="1.1" id="Layer_1" xmlns="http://www.w3.org/2000/svg" xmlns:xlink="http://www.w3.org/1999/xlink" x="0px" y="0px"
	 viewBox="0 0 239 289.4" style="enable-background:new 0 0 239 289.4;" xml:space="preserve">
<style type="text/css">
	.st0{fill:#6DBE9C;}
	.st1{fill:#FFFFFF;}
</style>
<g>
	<path class="st0" d="M203.9,35C157-11.9,81.3-11.5,34.3,35.4S-12.9,158.2,34,205.1l84.7,84.3l84.9-84.9
		C250.6,157.6,250.9,81.9,203.9,35z"/>
	<g>
		<path class="st1" d="M127.3,26.7v30.6c18.6,3.8,32.7,20.3,32.7,40.1v72.7h0c0,0,0,0.1,0,0.1c0,4.5-3.7,8.2-8.2,8.2
			s-8.2-3.7-8.2-8.2c0,0,0-0.1,0-0.1h0v-39.9v-29.6c0-4.5-3.7-8.2-8.2-8.2s-8.2,3.7-8.2,8.2v36.9v32.6h0c0,0,0,0.1,0,0.1
			c0,4.5-3.7,8.2-8.2,8.2c-4.5,0-8.2-3.7-8.2-8.2c0,0,0-0.1,0-0.1h0v-32.6v-36.9c0-4.5-3.7-8.2-8.2-8.2c-4.5,0-8.2,3.7-8.2,8.2v29.6
			v40c0,4.5-3.7,8.2-8.2,8.2c-4.5,0-8.2-3.7-8.2-8.2V97.5h0c0,0,0-0.1,0-0.1c0-19.8,14.1-36.3,32.7-40.1V26.7
			C63,30.8,25.4,71,25.4,119.9c0,51.7,41.9,93.6,93.6,93.6s93.6-41.9,93.6-93.6C212.6,71,175.1,30.9,127.3,26.7z"/>
	</g>
</g>
</svg>
